<?xml version="1.0" encoding="utf-8"?>
<!-- Generator: Adobe Illustrator 19.2.1, SVG Export Plug-In . SVG Version: 6.00 Build 0)  -->
<svg version="1.1" xmlns="http://www.w3.org/2000/svg" xmlns:xlink="http://www.w3.org/1999/xlink" x="0px" y="0px" width="270px" height="43px" viewBox="0 0 270 43" enable-background="new 0 0 270 43" xml:space="preserve">
	<g id="Layer_2" display="none"></g>
	<g id="Layer_1">
		<g>
			<g>
				<path fill="#919396" d="M176.1,30.4l-1.4,11.4h-2.6l1.4-11.4H176.1z" />
				<path fill="#919396" d="M176.7,41.7l1.4-11.4h2.3l5.2,7.4l0.9-7.4h2.6l-1.4,11.4h-2.3l-5.3-7.4l-0.9,7.4H176.7z" />
				<path fill="#919396" d="M194.7,32.6l-1.1,9.1H191l1.1-9.1h-2.5l0.3-2.2l7.6,0l-0.3,2.2H194.7z" />
				<path fill="#919396" d="M204.2,32.6h-3.7l-0.3,2.2h3.6l-0.3,2.2H200l-0.3,2.5h3.8l-0.3,2.2h-6.3l1.4-11.4h6.3L204.2,32.6z" />
				<path fill="#919396" d="M209.8,30.4c1.1,0,2.2,0.1,3,1c0.4,0.4,0.8,1.1,0.8,2.3c0,1.1-0.4,1.9-0.9,2.5c-0.5,0.5-1.2,0.8-1.8,0.9     l2.9,4.6h-3.1l-2.7-4.5l-0.5,4.5h-2.6l1.4-11.4H209.8z M208.2,35.5h0.6c0.4,0,1.1-0.1,1.5-0.4c0.5-0.4,0.6-0.9,0.6-1.3     c0-0.4-0.1-0.8-0.5-1.1c-0.3-0.2-0.8-0.3-1.4-0.3h-0.4L208.2,35.5z" />
				<path fill="#919396" d="M221.6,39.6h-4.3l-1.1,2.1h-2.8l6-11.4h2.4l3,11.4h-2.7L221.6,39.6z M221.1,37.6l-0.9-4l-1.9,4H221.1z" />
				<path fill="#919396" d="M233.4,41.4c-0.4,0.2-1.3,0.6-2.8,0.6c-2.1,0-3.4-0.9-4-1.5c-0.7-0.7-1.5-2-1.5-3.9s0.7-3.6,1.8-4.7     c1-1,2.5-1.8,4.5-1.8c1.8,0,2.8,0.6,3.2,0.8l-0.3,2.8c-0.5-0.5-1.3-1.1-2.8-1.1c-1.1,0-2,0.3-2.7,1.1c-0.7,0.7-1,1.8-1,2.7     c0,1,0.4,1.8,0.9,2.3c0.5,0.5,1.4,0.9,2.4,0.9c1.1,0,2-0.5,2.7-1L233.4,41.4z" />
				<path fill="#919396" d="M240.1,32.6l-1.1,9.1l-2.6,0l1.1-9.1l-2.5,0l0.3-2.2h7.6l-0.3,2.2H240.1z" />
				<path fill="#919396" d="M246.3,30.4l-1.4,11.4h-2.6l1.4-11.4L246.3,30.4z" />
				<path fill="#919396" d="M249.8,30.4l2,7.3l3.8-7.3l2.9,0l-6.2,11.4h-1.8l-3.4-11.4H249.8z" />
				<path fill="#919396" d="M265.2,32.6l-3.7,0l-0.3,2.2h3.6l-0.3,2.2H261l-0.3,2.5h3.8l-0.3,2.2l-6.3,0l1.4-11.4h6.3L265.2,32.6z" />
			</g>
			<g>
				<path fill="#242D33" d="M82.8,1.5L85.5,15l6-13.5l3.2,0L97.4,15l6-13.5l5,0L99,21.9l-4,0L92.2,9.5l-5.8,12.4h-4L78,1.5L82.8,1.5z     " />
				<path fill="#242D33" d="M126.9,3.7c1.7,1.7,2.9,4.3,2.9,7.3c0,2.9-1,6.1-3.2,8.3c-2.6,2.6-5.8,3.2-8.5,3.2     c-2.5,0-5.4-0.5-7.8-2.9c-1.4-1.4-2.9-3.8-2.9-7.1c0-3.6,1.4-6.4,3.4-8.2c2.6-2.5,5.8-3.1,8.4-3.1C123.2,1,125.5,2.4,126.9,3.7z      M114.2,7.3c-1.2,1.3-1.9,3-1.9,4.7c0,1.9,0.7,3.3,1.7,4.3c1.4,1.4,3,1.7,4.5,1.7c1.4,0,3.1-0.2,4.6-1.7c1.1-1.1,1.9-2.9,1.9-5     c0-1.3-0.3-3-1.6-4.3c-1.3-1.3-3-1.6-4.2-1.6C117.1,5.3,115.4,6,114.2,7.3z" />
				<path fill="#242D33" d="M139.8,1.5c2,0,3.9,0.2,5.4,1.8c0.7,0.7,1.5,2,1.5,4.2c0,1.9-0.7,3.5-1.7,4.5c-0.9,0.9-2.1,1.4-3.2,1.7     l5.3,8.3h-5.5l-4.9-8l-1,8h-4.7l2.5-20.4L139.8,1.5z M137,10.7h1.2c0.8,0,1.9-0.1,2.8-0.7c0.8-0.6,1-1.5,1-2.4c0-0.6-0.2-1.5-1-2     c-0.6-0.4-1.5-0.5-2.6-0.5h-0.7L137,10.7z" />
				<path fill="#242D33" d="M155.7,1.5l-2,16.4h6.4l-0.5,4l-11.1,0L151,1.5L155.7,1.5z" />
				<path fill="#242D33" d="M169.6,1.5c2.1,0,5.5,0.3,7.8,2.6c1.3,1.3,2.5,3.6,2.5,6.8c0,4.7-2.1,7.2-3.2,8.2     c-2.4,2.2-5.6,2.8-9.3,2.8l-6.3,0l2.5-20.4L169.6,1.5z M166.3,17.9h1.4c1.4,0,3.6-0.1,5.2-1.6c1.2-1,2.1-2.9,2.1-5.4     c0-1.8-0.6-3.2-1.5-4.1c-1-0.9-2.7-1.4-4.3-1.4h-1.4L166.3,17.9z" />
				<path fill="#242D33" d="M180.1,21.9L186,1.5l3.9,0l3.5,12.2L200,1.5l4,0l0.7,20.4l-4.7,0l-0.1-12.2l-6.5,12.2h-1.8L188,9.7     l-3.1,12.2H180.1z" />
				<path fill="#242D33" d="M220.4,5.4l-6.7,0l-0.5,3.9l6.4,0l-0.5,4l-6.4,0l-0.6,4.5h6.8l-0.5,4l-11.4,0l2.5-20.4l11.3,0L220.4,5.4z     " />
				<path fill="#242D33" d="M229.9,1.5c2.1,0,5.5,0.3,7.8,2.6c1.3,1.3,2.5,3.6,2.5,6.8c0,4.7-2.1,7.2-3.2,8.2     c-2.4,2.2-5.6,2.8-9.3,2.8h-6.3l2.5-20.4L229.9,1.5z M226.6,17.9h1.4c1.4,0,3.6-0.1,5.2-1.6c1.2-1,2.1-2.9,2.1-5.4     c0-1.8-0.6-3.2-1.5-4.1c-1-0.9-2.7-1.4-4.3-1.4h-1.4L226.6,17.9z" />
				<path fill="#242D33" d="M248.6,1.5l-2.5,20.4l-4.7,0l2.5-20.4L248.6,1.5z" />
				<path fill="#242D33" d="M262.2,18h-7.7l-1.9,3.9h-5.1l10.8-20.4l4.3,0l5.5,20.4h-4.8L262.2,18z M261.4,14.4l-1.7-7.2l-3.4,7.2     L261.4,14.4z" />
			</g>
			<g>
				<g>
					<path fill="#EC008C" d="M31.9,1.3l5.9,0c4.2,0,6.7,4.7,4.5,8.5L25.8,38.9c-1,1.8-2.9,3-4.9,3l-5.9,0c-4.2,0-6.7-4.7-4.5-8.5      L26.9,4.3C28,2.5,29.9,1.3,31.9,1.3z" />
					<path fill="#EC008C" d="M55.8,1.3l5.9,0c4.2,0,6.7,4.7,4.5,8.5L49.8,38.9c-1,1.8-2.9,3-4.9,3l-5.9,0c-4.2,0-6.7-4.7-4.5-8.5      L50.9,4.3C51.9,2.5,53.8,1.3,55.8,1.3z" />
					<path fill="#EC008C" d="M14,1.3l-13,0L8.1,28L18.5,9.7C20.6,6,18.1,1.3,14,1.3z" />
					<path fill="#EC008C" d="M62.7,41.9l13,0l-7.1-26.6L58.2,33.5C56.1,37.3,58.6,41.9,62.7,41.9z" />
				</g>
			</g>
		</g>
	</g>
</svg>
